<?xml version="1.0" encoding="utf-8"?>
<!-- Generator: Adobe Illustrator 28.1.0, SVG Export Plug-In . SVG Version: 6.00 Build 0)  -->
<svg version="1.1" id="Layer_1" xmlns="http://www.w3.org/2000/svg" xmlns:xlink="http://www.w3.org/1999/xlink" x="0px" y="0px"
	 viewBox="0 0 469.1 58.8" style="enable-background:new 0 0 469.1 58.8;" xml:space="preserve">
<style type="text/css">
	.st0{fill:#010101;}
</style>
<g>
	<path class="st0" d="M4.4,38.7c0-12.9,10.7-22.5,25.8-22.5c9.1,0,15.8,3.5,19.1,9.8l-10.4,4.7c-1.9-3.6-5.1-5.2-9.5-5.2
		c-7.2,0-12.6,5.2-12.6,12.6c0,5.2,3.5,8.6,9.9,8.6c4.2,0,7.9-1.6,10.4-5.2l9.1,5.2C42.1,52.5,34.7,56,26,56
		C12.8,56,4.4,49.1,4.4,38.7z"/>
	<path class="st0" d="M46.5,38.7c0-12.9,10.7-22.5,25.6-22.5c13,0,21.3,6.8,21.3,17.3C93.4,46.4,82.8,56,67.8,56
		C54.9,56,46.5,49.1,46.5,38.7z M81,34c0-5.2-3.5-8.5-9.6-8.5c-7.2,0-12.5,5.2-12.5,12.7c0,5.2,3.5,8.5,9.7,8.5
		C75.8,46.7,81,41.6,81,34z"/>
	<path class="st0" d="M148,2.1l-11.7,53.3h-11.7l0.9-3.9c-3.4,2.8-7.7,4.5-13,4.5c-9.8,0-18.3-6.3-18.3-17.3
		c0-13,10.3-22.5,23.4-22.5c6.1,0,10.9,1.9,13.7,5.7l4.3-19.8L148,2.1L148,2.1z M128.8,34c0-5.2-3.5-8.5-9.7-8.5
		c-7.2,0-12.4,5.2-12.4,12.7c0,5.2,3.5,8.5,9.7,8.5C123.6,46.7,128.8,41.6,128.8,34z"/>
	<path class="st0" d="M189.1,39.1h-32.4c0.4,5.2,3.9,7.9,10.9,7.9c4.3,0,8.4-1.3,11.3-3.6l5.1,7.4c-4.9,3.6-11.3,5.2-17.7,5.2
		c-13.2,0-21.7-6.8-21.7-17.3c0-12.9,10.2-22.5,25-22.5c12.4,0,20.2,6.7,20.2,17C189.8,35.3,189.5,37.3,189.1,39.1z M157.5,32.6h21
		c0-5.1-3.8-8-9.4-8C163.2,24.6,159.2,27.8,157.5,32.6z"/>
	<path class="st0" d="M231.3,34.7h-13.6L215,46.9h-10.2l2.7-12.2h-13.6l1.9-8.8h13.6l2.7-12.2h10.2l-2.7,12.2h13.6L231.3,34.7z"/>
	<path class="st0" d="M235,38.7c0-12.9,10.7-22.5,25.8-22.5c9.1,0,15.8,3.5,19.1,9.8l-10.4,4.7c-1.9-3.6-5.1-5.2-9.5-5.2
		c-7.2,0-12.6,5.2-12.6,12.6c0,5.2,3.5,8.6,9.9,8.6c4.2,0,7.9-1.6,10.4-5.2l9.1,5.2c-4.1,5.8-11.5,9.3-20.2,9.3
		C243.5,56,235,49.1,235,38.7z"/>
	<path class="st0" d="M277.1,38.7c0-12.9,10.7-22.5,25.6-22.5c13,0,21.3,6.8,21.3,17.3c0,12.9-10.6,22.5-25.6,22.5
		C285.5,56,277.1,49.1,277.1,38.7z M311.6,34c0-5.2-3.5-8.5-9.6-8.5c-7.2,0-12.5,5.2-12.5,12.7c0,5.2,3.5,8.5,9.7,8.5
		C306.4,46.7,311.6,41.6,311.6,34z"/>
	<path class="st0" d="M345.9,16.2l-0.3,1.4h10.8l-1.9,8.6H344l-6.4,29.2h-12.3l6.4-29.2h-6.6l1.9-8.6h6.6l0.5-2.2
		c1.9-8.4,8-13.9,18.4-13.9c3.8,0,7.3,0.8,9.8,2.2l-4.8,8.1c-1.3-0.9-3-1.4-4.9-1.4C348.9,10.4,346.8,12.2,345.9,16.2z"/>
	<path class="st0" d="M372.5,16.2l-0.3,1.4H383l-1.9,8.6h-10.5l-6.4,29.2h-12.3l6.4-29.2h-6.6l1.9-8.6h6.6l0.5-2.2
		c1.9-8.4,8-13.9,18.4-13.9c3.8,0,7.3,0.8,9.8,2.2l-4.8,8.1c-1.3-0.9-3-1.4-4.9-1.4C375.4,10.4,373.4,12.2,372.5,16.2z"/>
	<path class="st0" d="M421.7,39.1h-32.5c0.4,5.2,3.9,7.9,11,7.9c4.3,0,8.4-1.3,11.3-3.6l5.1,7.4c-4.9,3.6-11.3,5.2-17.7,5.2
		c-13.2,0-21.7-6.8-21.7-17.3c0-12.9,10.2-22.5,25-22.5c12.4,0,20.2,6.7,20.2,17C422.4,35.3,422.1,37.3,421.7,39.1z M390.1,32.6h21
		c0-5.1-3.8-8-9.5-8C395.8,24.6,391.8,27.8,390.1,32.6z"/>
	<path class="st0" d="M467.2,39.1h-32.5c0.4,5.2,3.9,7.9,11,7.9c4.3,0,8.4-1.3,11.3-3.6l5.1,7.4c-4.9,3.6-11.3,5.2-17.7,5.2
		c-13.2,0-21.7-6.8-21.7-17.3c0-12.9,10.2-22.5,25-22.5c12.4,0,20.2,6.7,20.2,17C468,35.3,467.6,37.3,467.2,39.1z M435.7,32.6h21
		c0-5.1-3.8-8-9.5-8C441.3,24.6,437.3,27.8,435.7,32.6z"/>
</g>
</svg>
