<?xml version="1.0" encoding="UTF-8" standalone="no"?>
<!DOCTYPE svg PUBLIC "-//W3C//DTD SVG 1.1//EN" "http://www.w3.org/Graphics/SVG/1.1/DTD/svg11.dtd">
<svg width="100%" height="100%" viewBox="0 0 811 85" version="1.1" xmlns="http://www.w3.org/2000/svg" xmlns:xlink="http://www.w3.org/1999/xlink" xml:space="preserve" xmlns:serif="http://www.serif.com/" style="fill-rule:evenodd;clip-rule:evenodd;stroke-linejoin:round;stroke-miterlimit:2;">
    <g id="Artboard1" transform="matrix(1,0,0,1,7.31026,-12.6218)">
        <rect x="-7.31" y="12.622" width="810.845" height="84.246" style="fill:none;"/>
        <g transform="matrix(0.631204,0,0,0.631204,10.2682,58.0086)">
            <path d="M0,8.646C0,-12.849 17.899,-28.941 43.167,-28.941C58.302,-28.941 69.62,-23.056 75.016,-12.609L57.644,-4.683C54.485,-10.688 49.09,-13.45 41.851,-13.45C29.743,-13.45 20.794,-4.803 20.794,7.686C20.794,16.452 26.716,22.096 37.245,22.096C44.352,22.096 50.406,19.454 54.617,13.45L69.752,22.096C62.908,31.823 50.537,37.587 36.061,37.587C14.082,37.587 0,26.059 0,8.646" style="fill-rule:nonzero;"/>
        </g>
        <g transform="matrix(0.631204,0,0,0.631204,91.0151,62.936)">
            <path d="M0,-6.966C0,-15.732 -5.791,-21.256 -16.056,-21.256C-28.164,-21.256 -36.85,-12.61 -36.85,-0C-36.85,8.765 -30.928,14.29 -20.662,14.29C-8.686,14.29 0,5.643 0,-6.966M-57.644,0.84C-57.644,-20.655 -39.745,-36.747 -14.872,-36.747C6.844,-36.747 20.794,-25.339 20.794,-7.806C20.794,13.689 3.027,29.781 -21.979,29.781C-43.562,29.781 -57.644,18.253 -57.644,0.84" style="fill-rule:nonzero;"/>
        </g>
        <g transform="matrix(0.631204,0,0,0.631204,141.441,48.0793)">
            <path d="M0,16.571C0,7.805 -5.922,2.281 -16.188,2.281C-28.296,2.281 -36.982,10.927 -36.982,23.537C-36.982,32.302 -31.06,37.827 -20.794,37.827C-8.686,37.827 0,29.18 0,16.571M32.112,-36.747L12.634,52.357L-6.844,52.357L-5.396,45.873C-11.055,50.555 -18.293,53.318 -27.111,53.318C-43.562,53.318 -57.644,42.75 -57.644,24.377C-57.644,2.641 -40.403,-13.21 -18.557,-13.21C-8.292,-13.21 -0.263,-10.088 4.343,-3.723L11.581,-36.747L32.112,-36.747Z" style="fill-rule:nonzero;"/>
        </g>
        <g transform="matrix(0.631204,0,0,0.631204,171.763,64.4513)">
            <path d="M0,-11.768L35.139,-11.768C35.139,-20.294 28.822,-25.098 19.346,-25.098C9.476,-25.098 2.764,-19.814 0,-11.768M52.774,-0.84L-1.448,-0.84C-0.79,7.926 5.132,12.37 16.846,12.37C24.084,12.37 30.927,10.208 35.797,6.365L44.352,18.734C36.192,24.738 25.532,27.38 14.74,27.38C-7.37,27.38 -21.452,15.972 -21.452,-1.561C-21.452,-23.176 -4.343,-39.148 20.267,-39.148C40.93,-39.148 53.958,-27.98 53.958,-10.687C53.958,-7.205 53.432,-3.842 52.774,-0.84" style="fill-rule:nonzero;"/>
        </g>
        <g transform="matrix(0.631204,0,0,0.631204,242.624,62.936)">
            <path d="M0,-6.966C0,-15.732 -5.922,-21.256 -16.188,-21.256C-28.296,-21.256 -36.982,-12.61 -36.982,-0C-36.982,8.765 -31.06,14.29 -20.794,14.29C-8.686,14.29 0,5.643 0,-6.966M26.848,-35.786L12.766,28.82L-6.712,28.82L-5.396,22.456C-11.055,27.138 -18.425,29.781 -27.111,29.781C-43.562,29.781 -57.644,19.213 -57.644,0.84C-57.644,-20.896 -40.403,-36.747 -18.557,-36.747C-8.292,-36.747 -0.132,-33.745 4.475,-27.02L6.317,-35.786L26.848,-35.786Z" style="fill-rule:nonzero;"/>
        </g>
        <g transform="matrix(0.631204,0,0,0.631204,309.664,67.2561)">
            <path d="M0,-21.616C0,-19.214 -0.263,-16.572 -0.921,-13.81L-8.817,21.976L-29.348,21.976L-21.715,-12.609C-21.32,-14.171 -21.188,-15.731 -21.188,-17.053C-21.188,-23.657 -25.137,-27.38 -33.296,-27.38C-43.693,-27.38 -50.932,-22.096 -53.432,-10.807L-60.539,21.976L-81.07,21.976L-66.988,-42.631L-47.51,-42.631L-49.089,-35.666C-42.641,-41.07 -34.481,-43.592 -25.795,-43.592C-10.265,-43.592 0,-35.906 0,-21.616" style="fill-rule:nonzero;"/>
        </g>
        <g transform="matrix(0.631204,0,0,0.631204,349.706,48.0793)">
            <path d="M0,16.571C0,7.805 -5.922,2.281 -16.188,2.281C-28.296,2.281 -36.982,10.927 -36.982,23.537C-36.982,32.302 -31.06,37.827 -20.794,37.827C-8.686,37.827 0,29.18 0,16.571M32.112,-36.747L12.634,52.357L-6.844,52.357L-5.396,45.873C-11.055,50.555 -18.293,53.318 -27.111,53.318C-43.562,53.318 -57.644,42.75 -57.644,24.377C-57.644,2.641 -40.403,-13.21 -18.557,-13.21C-8.292,-13.21 -0.263,-10.088 4.343,-3.723L11.581,-36.747L32.112,-36.747Z" style="fill-rule:nonzero;"/>
        </g>
        <g transform="matrix(0.631204,0,0,0.631204,366.404,58.0086)">
            <path d="M0,8.646C0,-12.849 17.899,-28.941 43.167,-28.941C58.302,-28.941 69.621,-23.056 75.016,-12.609L57.644,-4.683C54.486,-10.688 49.089,-13.45 41.851,-13.45C29.743,-13.45 20.794,-4.803 20.794,7.686C20.794,16.452 26.716,22.096 37.245,22.096C44.352,22.096 50.406,19.454 54.617,13.45L69.751,22.096C62.909,31.823 50.538,37.587 36.061,37.587C14.082,37.587 0,26.059 0,8.646" style="fill-rule:nonzero;"/>
        </g>
        <g transform="matrix(0.631204,0,0,0.631204,447.152,62.936)">
            <path d="M0,-6.966C0,-15.732 -5.791,-21.256 -16.057,-21.256C-28.164,-21.256 -36.851,-12.61 -36.851,-0C-36.851,8.765 -30.928,14.29 -20.663,14.29C-8.687,14.29 0,5.643 0,-6.966M-57.645,0.84C-57.645,-20.655 -39.746,-36.747 -14.872,-36.747C6.843,-36.747 20.794,-25.339 20.794,-7.806C20.794,13.689 3.026,29.781 -21.979,29.781C-43.563,29.781 -57.645,18.253 -57.645,0.84" style="fill-rule:nonzero;"/>
        </g>
        <g transform="matrix(0.631204,0,0,0.631204,483.372,65.6639)">
            <path d="M0,-41.069L-0.526,-38.668L17.504,-38.668L14.345,-24.257L-3.158,-24.257L-13.818,24.498L-34.35,24.498L-23.689,-24.257L-34.744,-24.257L-31.586,-38.668L-20.531,-38.668L-19.741,-42.39C-16.583,-56.44 -6.317,-65.567 11.055,-65.567C17.372,-65.567 23.294,-64.246 27.374,-61.965L19.346,-48.514C17.108,-50.076 14.345,-50.796 11.187,-50.796C4.869,-50.796 1.447,-47.794 0,-41.069" style="fill-rule:nonzero;"/>
        </g>
        <g transform="matrix(0.631204,0,0,0.631204,511.368,65.6639)">
            <path d="M0,-41.069L-0.526,-38.668L17.504,-38.668L14.345,-24.257L-3.158,-24.257L-13.818,24.498L-34.35,24.498L-23.689,-24.257L-34.744,-24.257L-31.586,-38.668L-20.531,-38.668L-19.741,-42.39C-16.583,-56.44 -6.317,-65.567 11.055,-65.567C17.372,-65.567 23.294,-64.246 27.374,-61.965L19.346,-48.514C17.108,-50.076 14.345,-50.796 11.187,-50.796C4.869,-50.796 1.447,-47.794 0,-41.069" style="fill-rule:nonzero;"/>
        </g>
        <g transform="matrix(0.631204,0,0,0.631204,529.977,64.4513)">
            <path d="M0,-11.768L35.139,-11.768C35.139,-20.294 28.821,-25.098 19.346,-25.098C9.476,-25.098 2.764,-19.814 0,-11.768M52.774,-0.84L-1.448,-0.84C-0.79,7.926 5.133,12.37 16.846,12.37C24.084,12.37 30.928,10.208 35.797,6.365L44.352,18.734C36.191,24.738 25.531,27.38 14.74,27.38C-7.37,27.38 -21.452,15.972 -21.452,-1.561C-21.452,-23.176 -4.343,-39.148 20.268,-39.148C40.93,-39.148 53.959,-27.98 53.959,-10.687C53.959,-7.205 53.433,-3.842 52.774,-0.84" style="fill-rule:nonzero;"/>
        </g>
        <g transform="matrix(0.631204,0,0,0.631204,577.994,64.4513)">
            <path d="M0,-11.768L35.139,-11.768C35.139,-20.294 28.821,-25.098 19.346,-25.098C9.476,-25.098 2.764,-19.814 0,-11.768M52.774,-0.84L-1.448,-0.84C-0.79,7.926 5.133,12.37 16.846,12.37C24.084,12.37 30.928,10.208 35.797,6.365L44.352,18.734C36.191,24.738 25.531,27.38 14.74,27.38C-7.37,27.38 -21.452,15.972 -21.452,-1.561C-21.452,-23.176 -4.344,-39.148 20.268,-39.148C40.93,-39.148 53.959,-27.98 53.959,-10.687C53.959,-7.205 53.433,-3.842 52.774,-0.84" style="fill-rule:nonzero;"/>
        </g>
        <g transform="matrix(0.0412801,0.629853,0.629853,-0.0412801,616.851,66.334)">
            <path d="M12.832,-12.019C5.283,-11.524 0.765,-5.16 1.264,2.456C1.721,9.417 6.481,14.116 12.832,13.7C20.262,13.213 24.882,6.58 24.408,-0.644C23.952,-7.604 19.062,-12.427 12.832,-12.019" style="fill-rule:nonzero;"/>
        </g>
        <g transform="matrix(0.631204,0,0,0.631204,666.052,48.0793)">
            <path d="M0,16.571C0,7.805 -5.923,2.281 -16.187,2.281C-28.296,2.281 -36.981,10.927 -36.981,23.537C-36.981,32.302 -31.06,37.827 -20.794,37.827C-8.687,37.827 0,29.18 0,16.571M32.112,-36.747L12.634,52.357L-6.844,52.357L-5.396,45.873C-11.055,50.555 -18.294,53.318 -27.111,53.318C-43.563,53.318 -57.645,42.75 -57.645,24.377C-57.645,2.641 -40.403,-13.21 -18.557,-13.21C-8.291,-13.21 -0.264,-10.088 4.343,-3.723L11.581,-36.747L32.112,-36.747Z" style="fill-rule:nonzero;"/>
        </g>
        <g transform="matrix(0.631204,0,0,0.631204,696.374,64.4513)">
            <path d="M0,-11.768L35.139,-11.768C35.139,-20.294 28.821,-25.098 19.346,-25.098C9.476,-25.098 2.764,-19.814 0,-11.768M52.774,-0.84L-1.448,-0.84C-0.79,7.926 5.133,12.37 16.846,12.37C24.084,12.37 30.928,10.208 35.797,6.365L44.352,18.734C36.191,24.738 25.531,27.38 14.74,27.38C-7.37,27.38 -21.452,15.972 -21.452,-1.561C-21.452,-23.176 -4.344,-39.148 20.268,-39.148C40.93,-39.148 53.959,-27.98 53.959,-10.687C53.959,-7.205 53.433,-3.842 52.774,-0.84" style="fill-rule:nonzero;"/>
        </g>
        <g transform="matrix(0.631204,0,0,0.631204,782.354,81.1271)">
            <path d="M0,-64.606L-43.956,0L-65.146,0L-80.807,-64.606L-60.539,-64.606L-50.273,-20.535L-20.53,-64.606L0,-64.606Z" style="fill-rule:nonzero;"/>
        </g>
    </g>
</svg>
